<svg width="29" height="29" viewBox="0 0 29 29" fill="none" xmlns="http://www.w3.org/2000/svg">
<path d="M27.3226 23.5425C26.9996 23.5423 26.6899 23.4139 26.4616 23.1855C26.2332 22.9572 26.1048 22.6475 26.1046 22.3245L26.1032 4.58463L2.90531 27.7825C2.67676 28.011 2.36676 28.1394 2.04353 28.1394C1.7203 28.1394 1.4103 28.011 1.18174 27.7825C0.953181 27.5539 0.82478 27.2439 0.824781 26.9207C0.824779 26.5975 0.953183 26.2875 1.18174 26.0589L24.3796 2.86106L6.63972 2.85962C6.32413 2.84848 6.02518 2.71528 5.80586 2.48808C5.58653 2.26088 5.46396 1.95742 5.46396 1.64163C5.46396 1.32584 5.58654 1.02238 5.80586 0.79518C6.02518 0.56798 6.32413 0.434778 6.63972 0.423638L27.3226 0.423638C27.6456 0.423839 27.9552 0.552227 28.1836 0.780602C28.412 1.00898 28.5404 1.31866 28.5406 1.64163L28.5406 22.3245C28.5404 22.6475 28.412 22.9572 28.1836 23.1855C27.9553 23.4139 27.6456 23.5423 27.3226 23.5425Z" fill="white"/>
</svg>
