<svg width="28" height="28" viewBox="0 0 28 28" fill="none" xmlns="http://www.w3.org/2000/svg">
<path d="M4.76992 26.7816C4.77012 26.4587 4.89851 26.149 5.12688 25.9206C5.35525 25.6922 5.66494 25.5638 5.98791 25.5636L23.7278 25.5622L0.52993 2.36436C0.301371 2.1358 0.172967 1.8258 0.172968 1.50257C0.172967 1.17934 0.30137 0.869343 0.529929 0.640784C0.758489 0.412224 1.06848 0.283822 1.39172 0.283823C1.71495 0.283821 2.02494 0.412225 2.2535 0.640784L25.4514 23.8386L25.4528 6.09876C25.4639 5.78317 25.5971 5.48422 25.8243 5.2649C26.0515 5.04558 26.355 4.92301 26.6708 4.92301C26.9866 4.92301 27.29 5.04558 27.5172 5.2649C27.7444 5.48422 27.8776 5.78317 27.8888 6.09876L27.8888 26.7816C27.8886 27.1046 27.7602 27.4143 27.5318 27.6427C27.3034 27.871 26.9937 27.9994 26.6708 27.9996L5.98791 27.9996C5.66494 27.9994 5.35525 27.871 5.12688 27.6427C4.8985 27.4143 4.77012 27.1046 4.76992 26.7816Z" fill="white"/>
</svg>
