<svg width="108" height="25" viewBox="0 0 108 25" fill="none" xmlns="http://www.w3.org/2000/svg">
<path d="M73.467 20.9275C77.2877 24.6811 83.4862 24.6182 87.3723 20.7637C87.9069 20.2337 88.382 19.646 88.7873 19.0114C84.9338 21.4287 79.8372 20.9919 76.5566 17.6845C75.4808 16.6 74.7151 15.3228 74.2588 13.9607L74.149 14.1408V18.813H71.753C72.1905 19.4956 72.7019 20.1442 73.2887 20.7476C73.3032 20.7628 73.3178 20.7778 73.3329 20.7929C73.3475 20.8081 73.3621 20.8231 73.3772 20.8381L73.3778 20.8386C73.3924 20.8535 73.407 20.8683 73.4221 20.8829C73.4373 20.8979 73.4519 20.9127 73.467 20.9275Z" fill="url(#paint0_linear_251_250)"/>
<path d="M70.6587 7.79736C71.2605 6.24628 72.1901 4.79355 73.4479 3.54626C78.212 -1.17961 85.8867 -1.17813 90.6496 3.52701C86.8289 -0.226586 80.6305 -0.163682 76.7449 3.69072C76.2097 4.22083 75.7347 4.8086 75.3294 5.44326C75.0897 5.81764 74.8779 6.20411 74.6929 6.59977L72.3108 10.5095L70.6587 7.79736Z" fill="url(#paint1_linear_251_250)"/>
<path d="M73.4671 20.9276C78.23 25.6328 85.9047 25.6342 90.6694 20.9083C91.2392 20.3429 91.7415 19.7354 92.1772 19.0956C91.3466 19.0921 90.5857 18.9559 89.9153 18.6908C89.6586 18.5893 89.4153 18.4691 89.186 18.3306C89.0628 18.5614 88.9299 18.7886 88.7873 19.0115C88.382 19.6461 87.9069 20.2338 87.3724 20.7638C83.4862 24.6183 77.2878 24.6812 73.4671 20.9276Z" fill="url(#paint2_linear_251_250)"/>
<path d="M86.678 5.98233C83.4143 3.40883 78.8522 3.23328 75.3295 5.44334C75.7348 4.80867 76.2098 4.22091 76.745 3.6908C80.6306 -0.163606 86.829 -0.226509 90.6497 3.52709C90.6649 3.54191 90.6794 3.55674 90.6946 3.57166C90.7098 3.58635 90.7243 3.60124 90.7389 3.61611L90.7401 3.61697C90.7547 3.63183 90.7692 3.64669 90.7838 3.66173C90.799 3.67684 90.8135 3.69185 90.8281 3.70704C92.553 5.48156 93.6318 7.64876 94.0663 9.91457V12.8522C94.0663 13.8285 93.8958 14.5396 93.5596 14.9657C93.4207 15.143 93.2393 15.2805 93.033 15.3647C92.8103 15.4575 92.5391 15.5044 92.226 15.5044C91.9172 15.5044 91.6484 15.4575 91.4269 15.3649C91.2194 15.2801 91.0374 15.1422 90.8979 14.9647C90.5581 14.5364 90.3858 13.8256 90.3858 12.8522V8.77178C90.3876 7.92555 90.0605 7.11288 89.4756 6.51063C89.1929 6.21818 88.8562 5.98467 88.4848 5.82318C88.1008 5.65562 87.687 5.56956 87.2695 5.57027H86.678V5.98233Z" fill="url(#paint3_linear_251_250)"/>
<path d="M82.0589 14.2652C83.1844 14.2652 84.0968 13.3528 84.0968 12.2273C84.0968 11.1018 83.1844 10.1895 82.0589 10.1895C80.9334 10.1895 80.021 11.1018 80.021 12.2273C80.021 13.3528 80.9334 14.2652 82.0589 14.2652Z" fill="white"/>
<path d="M102.976 12.0215L106.78 6.17175H104.052L101.589 10.1004L99.6865 7.12264C99.5021 6.83146 99.2484 6.59198 98.9493 6.42586C98.6502 6.25979 98.3147 6.17242 97.9743 6.17175H94.6578V12.8522C94.6578 15.154 93.7696 16.1059 92.226 16.1059C90.6988 16.1059 89.7948 15.154 89.7948 12.8522V8.77176C89.7948 7.33585 88.6638 6.17175 87.2695 6.17175V12.956C87.2695 16.5212 89.1086 18.4942 92.2108 18.4942C95.3125 18.4942 97.1521 16.5212 97.1521 12.956V7.63236L100.046 12.1253L96.0084 18.2866H98.9081L101.495 14.081L104.491 18.8749C104.671 19.1648 104.921 19.4037 105.216 19.5695C105.512 19.7353 105.844 19.8225 106.181 19.8233H108L102.976 12.0215Z" fill="white"/>
<path d="M9.67364 15.6801H3.98842L2.90385 18.2697H0L5.45784 6.185H8.25672L13.7321 18.2697H10.7583L9.67364 15.6801ZM8.78149 13.5566L6.8398 8.92996L4.89806 13.5566H8.78149Z" fill="#FA6E37"/>
<path d="M23.1083 12.0374H25.6972V16.9403C24.3503 17.9416 22.496 18.4768 20.7467 18.4768C16.8982 18.4768 14.0643 15.8699 14.0643 12.2273C14.0643 8.58459 16.8982 5.97778 20.7992 5.97778C22.9508 5.97778 24.7351 6.70285 25.9246 8.06668L24.1054 9.72405C23.2132 8.7918 22.1811 8.36016 20.9391 8.36016C18.5601 8.36016 16.9332 9.9312 16.9332 12.2273C16.9332 14.4889 18.5601 16.0944 20.9041 16.0944C21.6738 16.0944 22.391 15.9563 23.1083 15.5764V12.0374Z" fill="#FA6E37"/>
<path d="M37.5517 16.0253V18.2695H28.0705V6.18494H37.3243V8.42921H30.8868V11.0533H36.5721V13.2285H30.8868V16.0253L37.5517 16.0253Z" fill="#FA6E37"/>
<path d="M51.832 6.18494V18.2695H49.5055L43.4004 10.9324V18.2696H40.6014V6.18494H41.8761C42.2104 6.18494 42.5405 6.25817 42.8426 6.39942C43.1447 6.54061 43.4112 6.74623 43.623 7.00149L49.0332 13.522V6.18494H51.832Z" fill="#FA6E37"/>
<path d="M54.1334 12.2273C54.1334 8.58459 56.9673 5.97778 60.7806 5.97778C62.8976 5.97778 64.6644 6.73743 65.819 8.11849L63.9994 9.77581C63.1773 8.84355 62.1452 8.36016 60.9208 8.36016C58.6291 8.36016 57.0023 9.94849 57.0023 12.2273C57.0023 14.5061 58.6291 16.0944 60.9208 16.0944C62.1452 16.0944 63.1773 15.611 63.9994 14.6615L65.819 16.3188C64.6644 17.7171 62.8976 18.4767 60.763 18.4767C56.9673 18.4767 54.1334 15.8699 54.1334 12.2273Z" fill="white"/>
<path d="M73.6057 13.9882V18.2696H70.7716V13.9536L66.0311 6.18494H67.9381C68.2742 6.18494 68.6049 6.27073 68.8973 6.434C69.1898 6.59722 69.4343 6.83239 69.6072 7.11659L72.3109 11.5539L75.5824 6.18494H78.3637L73.6057 13.9882Z" fill="#FA6E37"/>
<defs>
<linearGradient id="paint0_linear_251_250" x1="74.1308" y1="3.5466" x2="89.6373" y2="18.5582" gradientUnits="userSpaceOnUse">
<stop stop-color="#FFB37B"/>
<stop offset="1" stop-color="#FA824D"/>
</linearGradient>
<linearGradient id="paint1_linear_251_250" x1="74.131" y1="3.5466" x2="89.6375" y2="18.5582" gradientUnits="userSpaceOnUse">
<stop stop-color="#FFB37B"/>
<stop offset="1" stop-color="#FA824D"/>
</linearGradient>
<linearGradient id="paint2_linear_251_250" x1="77.8102" y1="3.81792" x2="88.2868" y2="23.138" gradientUnits="userSpaceOnUse">
<stop stop-color="#FC8E59"/>
<stop offset="1" stop-color="#F95B23"/>
</linearGradient>
<linearGradient id="paint3_linear_251_250" x1="77.8104" y1="3.81792" x2="88.287" y2="23.138" gradientUnits="userSpaceOnUse">
<stop stop-color="#FC8E59"/>
<stop offset="1" stop-color="#F95B23"/>
</linearGradient>
</defs>
</svg>
